<?xml version="1.0" encoding="UTF-8"?>
<svg width="82px" height="42px" viewBox="0 0 82 42" version="1.1" xmlns="http://www.w3.org/2000/svg" xmlns:xlink="http://www.w3.org/1999/xlink">
    <!-- Generator: Sketch 55.2 (78181) - https://sketchapp.com -->
    <title>Group</title>
    <desc>Created with Sketch.</desc>
    <g id="Page-1" stroke="none" stroke-width="1" fill="none" fill-rule="evenodd">
        <g id="Group">
            <rect id="Rectangle" fill="#000000" x="0" y="0" width="82" height="42"></rect>
            <path d="M29.665,24.869 L34.969,24.869 L34.969,26 L28.365,26 L28.365,16.9 L34.787,16.9 L34.787,18.031 L29.665,18.031 L29.665,20.826 L34.228,20.826 L34.228,21.931 L29.665,21.931 L29.665,24.869 Z M42.145,16.354 L43.393,16.354 L43.393,26 L42.197,26 L42.197,24.908 C41.638,25.688 40.754,26.078 39.74,26.078 C37.725,26.078 36.256,24.661 36.256,22.555 C36.256,20.449 37.725,19.045 39.74,19.045 C40.715,19.045 41.573,19.409 42.145,20.15 L42.145,16.354 Z M39.844,24.986 C41.157,24.986 42.158,24.024 42.158,22.555 C42.158,21.086 41.157,20.137 39.844,20.137 C38.518,20.137 37.517,21.086 37.517,22.555 C37.517,24.024 38.518,24.986 39.844,24.986 Z M46.383,17.784 C45.902,17.784 45.538,17.433 45.538,16.978 C45.538,16.523 45.902,16.159 46.383,16.159 C46.864,16.159 47.228,16.51 47.228,16.952 C47.228,17.42 46.877,17.784 46.383,17.784 Z M45.759,26 L45.759,19.11 L47.007,19.11 L47.007,26 L45.759,26 Z M52.87,24.7 L53.26,25.597 C52.883,25.922 52.311,26.078 51.752,26.078 C50.361,26.078 49.568,25.311 49.568,23.92 L49.568,20.137 L48.398,20.137 L48.398,19.11 L49.568,19.11 L49.568,17.602 L50.816,17.602 L50.816,19.11 L52.792,19.11 L52.792,20.137 L50.816,20.137 L50.816,23.868 C50.816,24.609 51.206,25.025 51.895,25.025 C52.259,25.025 52.61,24.908 52.87,24.7 Z" id="Edit" fill="#FFFFFF" fill-rule="nonzero"></path>
        </g>
    </g>
</svg>